<svg width="3499" height="965" viewBox="0 0 3499 965" fill="none" xmlns="http://www.w3.org/2000/svg">
<path d="M0 482V964.133L7.06667 963.2C10.8 962.667 18.8 961.467 24.6667 960.4C42.8 957.2 81.3333 951.733 95.8667 950.4C103.6 949.6 110.8 948.8 111.867 948.533C113.067 948.133 117.6 947.6 122 947.2C140 945.333 144.8 944.667 147.067 943.467C149.2 942.4 149.333 928.667 149.333 683.067V423.867L152.533 427.067C154.4 428.933 157.2 434.933 159.067 440.667C163.733 455.333 177.2 494.267 179.333 499.067C180.267 501.2 181.467 505.2 182 507.733C182.533 510.267 183.733 513.6 184.667 515.2C185.733 516.8 186.933 520.267 187.467 523.067C188 525.867 189.2 529.733 190.133 531.6C191.2 533.467 192 536 192 537.2C192 538.267 192.933 540.4 194 541.867C195.067 543.2 196 545.867 196 547.733C196 549.6 196.8 552.267 197.733 553.733C198.667 555.2 200.267 559.067 201.2 562.4C202.267 565.733 203.733 570.133 204.667 572.4C205.6 574.533 207.067 579.6 208 583.467C208.933 587.2 210.133 590.8 210.8 591.2C211.467 591.6 212 592.933 212 594.133C212 595.333 212.933 598.133 214 600.267C215.067 602.267 216 604.933 216 605.867C216 606.933 217.467 610.8 219.333 614.4C221.2 618 222.667 622 222.667 623.333C222.667 624.667 223.6 627.467 224.8 629.733C226 631.867 227.467 635.867 228.133 638.4C229.067 642.933 232.533 653.467 234.8 659.067C235.467 660.533 237.467 666.267 239.2 671.733C242 680.267 243.867 685.467 249.733 701.067C250.133 702.133 250.8 704.267 251.2 705.733C251.467 707.2 254.667 716.133 258 725.733C261.333 735.2 267.067 752 270.8 763.067C274.4 774 278 784.267 278.667 785.733C279.333 787.2 280.4 790.533 281.2 793.067C281.867 795.6 284.267 802.8 286.667 809.067C288.933 815.333 292.4 825.2 294.267 831.067C296.133 836.933 298.8 844.133 300.133 847.2C301.6 850.133 302.667 853.333 302.667 854.133C302.667 855.067 303.2 856.8 303.867 858.133C305.6 861.467 313.067 882.4 314.133 887.067C314.667 889.2 315.467 891.733 316.133 892.4C316.667 893.2 317.733 896.267 318.533 899.067C320 905.2 324.133 916.933 325.867 919.467C327.067 921.333 344 920.667 357.2 918.133C375.6 914.667 446.267 907.067 474.667 905.467C481.067 905.2 486.8 904.133 487.733 903.2C490.133 900.8 490.133 2.40009 487.733 0.933427C486.8 0.26676 453.333 9.35793e-05 413.333 0.133427L340.667 0.400094L340.4 270.267C340.267 446.133 339.733 540.533 338.933 541.333C336.8 543.467 334.667 541.333 334.667 537.2C334.667 533.467 330 520.267 327.733 517.733C327.2 517.067 326.667 515.6 326.667 514.4C326.667 513.333 324.933 507.867 322.8 502.4C320.8 496.933 318.133 489.333 316.933 485.733C314.267 477.333 305.867 453.6 292.667 417.733C287.067 402.267 278.8 379.467 274.533 367.067C270.133 354.533 265.733 342.533 264.667 340.133C263.6 337.867 262.667 335.333 262.667 334.533C262.667 333.733 261.733 330.933 260.533 328.133C256 317.467 254.933 314.8 252.667 307.733C251.333 303.733 249.733 299.867 249.2 299.067C248.533 298.4 248 296.4 248 294.8C248 293.067 247.2 290 246.133 288C245.2 286 242.4 278.667 240 271.733C237.733 264.8 234.667 256.533 233.2 253.467C231.867 250.267 230.667 246.533 230.667 245.2C230.667 243.733 230.133 242.267 229.467 241.867C228.933 241.467 227.6 238.267 226.667 234.8C225.733 231.2 224.533 227.733 223.867 227.067C223.333 226.267 222.267 223.6 221.6 221.067C220.4 217.067 211.467 191.467 206.133 177.067C205.2 174.533 203.067 168.533 201.467 163.733C199.733 158.933 197.6 153.2 196.667 151.067C195.733 148.8 193.6 142.8 192 137.733C188.133 125.867 186.267 120.667 182.8 112.133C181.2 108.4 180 104.533 180 103.733C180 102.8 179.2 100.267 178.133 98.0001C177.067 95.6001 174.933 90.1334 173.333 85.7334C167.733 70.5334 159.6 48.4001 157.2 41.0668C154.667 33.8668 150.533 22.8001 147.333 15.0668C146.4 12.8001 144.933 8.80009 144.133 6.13343C143.2 3.46676 141.467 0.933427 140.267 0.533427C139.067 0.26676 106.933 9.35793e-05 69.0667 9.35793e-05H0V482Z" fill="#E50914"/>
<path d="M602.778 1.49117C601.711 3.09117 601.044 880.691 601.978 886.291C602.511 889.091 603.044 889.225 610.111 888.691C614.244 888.291 621.844 887.625 626.911 887.358C632.111 886.958 641.978 886.025 648.911 885.358C655.844 884.691 669.178 883.758 678.378 883.225C687.711 882.825 697.311 881.891 699.711 881.091C702.244 880.425 715.044 879.225 728.244 878.558C741.444 878.025 753.711 877.091 755.578 876.691C757.444 876.158 767.978 875.225 778.911 874.558C789.978 873.758 802.511 872.691 806.911 872.025C811.311 871.358 823.978 870.425 834.911 870.025C845.978 869.625 865.978 868.425 879.578 867.358C893.178 866.291 915.044 864.691 928.244 863.891C941.444 863.091 954.111 862.158 956.244 861.891C958.511 861.625 968.644 861.358 979.044 861.091C999.311 860.825 1015.31 859.091 1017.84 857.091C1019.04 856.025 1019.31 838.158 1019.31 784.558C1019.18 745.491 1018.78 712.825 1018.38 712.025C1017.71 711.091 1014.91 710.958 1009.58 711.758C1005.18 712.425 993.444 713.358 983.578 713.758C939.044 715.491 888.511 718.825 877.578 720.558C871.044 721.625 853.578 722.825 838.911 723.225C824.244 723.625 810.111 724.291 807.578 724.558C805.044 724.825 800.778 725.358 798.244 725.758C787.711 726.958 754.778 727.891 753.311 726.825C751.978 726.025 751.578 701.225 751.578 614.558C751.578 553.491 751.978 502.958 752.511 502.425C753.044 501.891 798.644 501.091 853.578 500.558C908.644 500.025 953.711 499.491 953.978 499.225C954.244 498.958 954.378 413.891 954.244 354.691C954.244 353.091 939.044 352.958 853.311 353.358L752.244 353.891L751.844 252.691C751.711 190.691 752.111 150.825 752.778 150.158C753.578 149.358 805.444 148.825 886.111 148.958C958.778 148.958 1018.24 148.825 1018.38 148.825C1018.38 148.691 1018.64 116.025 1019.04 76.1578C1019.58 22.5578 1019.44 3.2245 1018.24 1.89117C1016.91 0.291168 984.644 0.0245015 810.244 0.0245015C651.844 -0.108832 603.444 0.291168 602.778 1.49117Z" fill="#E50914"/>
<path d="M1131.79 1.62433C1131.39 2.42433 1131.26 35.891 1131.39 75.891L1131.79 148.558L1208.73 148.158L1285.66 147.891L1287.66 150.824C1289.66 153.491 1289.79 187.358 1289.79 498.958C1289.79 688.824 1290.19 844.691 1290.59 845.491C1291.39 846.691 1310.46 846.024 1321.13 844.291C1323.39 844.024 1350.06 843.358 1380.46 842.958C1410.86 842.558 1436.33 841.758 1436.86 841.224C1437.53 840.691 1437.93 685.624 1437.93 496.691C1437.79 264.291 1438.19 152.291 1439.13 150.558C1440.46 148.024 1442.59 148.024 1516.06 148.558C1557.66 148.958 1592.73 148.958 1593.93 148.558C1595.93 147.891 1596.19 141.624 1596.19 74.5577C1596.19 15.2243 1595.79 1.22433 1594.46 0.690995C1593.39 0.290995 1489.13 0.0243287 1362.46 0.0243287C1179.93 -0.109005 1132.19 0.290995 1131.79 1.62433Z" fill="#E50914"/>
<path d="M1708.19 417.867C1708.19 777.333 1708.46 835.867 1710.06 836.8C1711.13 837.333 1744.73 837.733 1784.73 837.467L1857.53 837.2V667.333C1857.53 573.867 1857.93 496.533 1858.33 495.333C1859.13 493.467 1869.26 493.2 1960.33 493.2C2015.93 493.2 2061.53 492.8 2061.53 492.133C2062.06 472.533 2061.39 347.467 2060.86 346.533C2060.33 345.6 2026.33 345.2 1961.79 345.2C1907.79 345.333 1862.19 345.333 1860.59 345.2H1857.53V248C1857.53 171.6 1857.93 150.4 1859.26 149.6C1860.06 149.067 1920.86 148.533 1994.19 148.533H2127.53V74.5334V0.533432L1917.79 0.266765L1708.19 9.8225e-05V417.867Z" fill="#E50914"/>
<path d="M2240.06 0.692887C2239.79 1.09289 2239.53 190.693 2239.53 421.76C2239.53 743.626 2239.93 842.426 2241.13 843.36C2242.73 844.693 2254.99 845.493 2298.59 846.826C2320.19 847.493 2349.39 848.826 2356.59 849.493C2370.19 850.693 2386.19 851.626 2407.93 852.16C2421.93 852.56 2437.53 853.093 2442.59 853.493C2465.26 854.96 2475.79 855.493 2494.59 856.293C2505.66 856.693 2520.86 857.626 2528.59 858.293C2536.33 858.96 2556.06 860.16 2572.59 860.826C2604.06 862.16 2619.79 862.96 2636.99 864.293L2647.26 865.226L2646.99 791.36L2646.59 717.493L2637.93 716.693C2623.66 715.226 2605.13 714.16 2581.93 713.493C2562.33 712.96 2549.39 712.16 2539.26 710.826C2531.79 709.893 2512.06 708.826 2491.93 708.16C2480.19 707.76 2468.19 707.093 2465.26 706.693C2462.33 706.293 2444.73 705.493 2426.19 704.96C2398.86 704.026 2391.93 703.493 2390.33 701.76C2388.59 700.026 2388.33 659.76 2388.19 350.026L2387.93 0.159553L2314.19 0.0262198C2273.66 -0.107114 2240.33 0.292887 2240.06 0.692887Z" fill="#E50914"/>
<path d="M2901.85 892.558L2763.85 881.274C2761.26 881.062 2759.26 878.894 2759.26 876.291V5.00007C2759.26 2.23865 2761.5 6.86646e-05 2764.26 6.86646e-05H2902.26C2905.02 6.86646e-05 2907.26 2.23863 2907.26 5.00005V887.575C2907.26 890.497 2904.76 892.796 2901.85 892.558Z" fill="#E50914"/>
<path d="M3211.99 1.44365C3182.78 6.21351 3157.97 13.1639 3139.97 21.7496C3134.5 24.339 3128.49 27.2009 3126.63 28.0186C3108.22 36.6043 3089.68 52.0041 3071.81 73.1277C3057.54 89.8904 3055.8 92.616 3045.67 112.649C3036.86 129.821 3035 135.408 3027.26 167.162C3020.99 193.601 3019.26 209.682 3019.26 244.842C3019.26 280.957 3021.66 300.99 3029.53 330.018C3033.26 343.783 3033.93 345.418 3045.4 369.54C3062.61 405.791 3078.35 427.46 3111.69 460.576C3125.56 474.341 3145.57 492.33 3157.44 501.733C3175.71 516.315 3193.85 530.08 3210.65 542.209C3234.8 559.653 3247.33 568.784 3257.47 576.279C3262.14 579.822 3268.41 584.456 3271.34 586.637C3285.35 596.721 3289.48 599.856 3299.35 607.351C3328.29 629.156 3346.43 655.595 3355.64 689.257C3358.57 700.432 3359.1 704.793 3359.1 722.509C3359.1 733.684 3358.84 744.451 3358.3 746.359C3352.17 772.116 3345.63 785.335 3333.36 796.51C3328.03 801.28 3313.09 808.775 3304.15 811.092C3286.81 815.726 3252.94 814.09 3236.8 807.821C3228.93 804.823 3217.19 797.737 3209.72 791.468C3200.78 783.972 3190.11 764.484 3186.78 749.766C3185.98 745.95 3184.91 741.452 3184.38 739.544C3183.98 737.637 3183.31 717.603 3183.05 694.98L3182.38 653.687L3111.42 653.551C3072.48 653.551 3038.2 653.278 3035.26 653.278L3029.93 653.006V687.757C3029.93 739.817 3031 756.58 3036.06 780.429C3040.33 801.144 3048.6 828.264 3050.87 829.218C3051.4 829.49 3051.94 830.717 3051.94 831.943C3051.94 834.396 3063.81 857.564 3069.28 865.605C3077.81 878.279 3101.82 904.173 3113.29 913.031C3117.29 916.165 3120.89 919.164 3121.29 919.572C3122.63 921.48 3151.3 937.153 3153.3 937.153C3154.5 937.153 3156.5 937.97 3157.97 939.061C3161.97 941.786 3191.05 951.599 3204.65 954.733C3225.19 959.367 3230.93 960.321 3246.67 961.683C3279.08 964.545 3291.21 964.682 3312.15 962.501C3330.16 960.729 3335.63 959.639 3352.03 954.188C3387.25 942.331 3416.99 924.751 3436.46 904.036C3448.2 891.635 3465.4 868.331 3465.4 864.923C3465.4 864.242 3465.94 863.561 3466.6 863.561C3467.54 863.561 3478.34 840.665 3482.88 828.809C3486.34 819.405 3492.88 790.923 3494.75 776.477C3495.55 770.072 3496.75 760.396 3497.41 755.217C3499.15 741.725 3498.08 698.251 3495.41 678.899C3491.01 644.965 3480.21 609.123 3467.14 584.183C3463.67 577.778 3460.07 570.692 3459 568.511C3457.8 566.194 3456.47 564.15 3456.07 563.741C3455.53 563.332 3454.07 561.016 3452.73 558.426C3451.53 555.837 3449.93 553.111 3449.27 552.294C3448.6 551.476 3444.73 546.161 3440.73 540.573C3423.39 516.724 3387.78 480.473 3362.04 460.849C3359.1 458.532 3351.9 452.944 3346.03 448.311C3340.16 443.677 3333.63 438.499 3331.63 436.863C3329.49 435.228 3318.42 427.051 3306.95 418.874C3285.21 403.338 3283.35 401.839 3266.67 387.802C3244.4 369.268 3231.19 356.593 3218.52 341.602C3210.79 332.472 3199.18 316.254 3195.45 309.44C3194.25 307.259 3192.78 304.534 3191.98 303.444C3183.58 289.407 3176.51 257.789 3176.11 231.759C3175.44 196.054 3188.38 168.252 3212.26 154.488C3225.06 146.992 3232.53 145.084 3252.94 144.403C3285.08 143.176 3302.28 148.491 3319.09 165.118C3330.96 176.838 3333.76 181.88 3338.83 199.87C3343.9 217.586 3344.03 218.949 3344.03 246.614C3344.03 266.239 3344.43 274.961 3345.63 275.642C3347.23 276.732 3494.75 276.732 3495.68 275.642C3497.28 274.143 3495.81 217.314 3493.95 203.958C3489.01 167.571 3480.21 137.861 3466.2 110.06C3459.27 96.023 3459.27 96.023 3444.86 77.8976C3431.13 60.4536 3408.85 40.829 3392.05 31.2893C3372.84 20.2505 3340.43 9.07542 3312.02 3.48788C3299.08 1.03481 3290.95 0.489683 3260 0.0808379C3234 -0.191725 3219.99 0.217119 3211.99 1.44365Z" fill="#E50914"/>
</svg>
